#!OML:ASF H:\charlestonDancing\Project 1\Capture day 1\Session 1\femaleDancer.ASF
:FULLY-SPECIFIED
:DEGREES
47
root -13.9815 17.5837 1.26718 166.744 -86.7587 -167.058
lowerback 7.04856 -2.3076 3.21923
upperback -3.25179 -2.82278 -0.657833
thorax -7.57267 -1.5652 -2.11382
lowerneck 0.34102 -13.4905 -9.02819
upperneck 8.03886 -18.0549 0.591372
head 3.51045 -9.25012 1.01049
rclavicle 1.9866e-014 1.35174e-014
rhumerus -40.587 38.5439 -91.6486
rradius 74.4794
rwrist 14.7348
rhand -23.8668 -33.2714
rfingers 7.12502
rthumb 182.606 -243.235
lclavicle 1.9866e-014 1.35174e-014
lhumerus -57.3033 18.8483 54.7406
lradius 40.0682
lwrist -7.33846
lhand -10.7683 15.6839
lfingers 7.12502
lthumb 15.2436 45.1023
rfemur -12.7779 0.248826 18.8477
rtibia 37.6637
rfoot -23.527 -0.260313
rtoes -18.1202
lfemur -10.5637 1.47828 -16.3245
ltibia 37.5718
lfoot -21.5011 -2.0598
ltoes -19.4321
48
root -13.9821 17.5847 1.2733 169.701 -87.1272 -170.032
lowerback 7.07634 -2.4344 2.8702
upperback -3.2267 -3.03067 -0.710019
thorax -7.55813 -1.6506 -1.94338
lowerneck 0.308971 -13.4419 -8.89426
upperneck 8.08062 -17.9832 0.491549
head 3.50083 -9.21473 0.961409
rclavicle 1.6729e-014 -1.98785e-015
rhumerus -41.9859 39.6791 -93.4137
rradius 72.3179
rwrist 15.5851
rhand -23.0908 -32.9244
rfingers 7.12502
rthumb 183.355 -242.878
lclavicle 1.6729e-014 -1.98785e-015
lhumerus -55.9512 16.9114 58.2858
lradius 40.0621
lwrist -8.17633
lhand -10.0329 16.0522
lfingers 7.12502
lthumb 15.952 45.4153
rfemur -12.7124 0.193238 18.5814
rtibia 37.6912
rfoot -23.5459 -0.547551
rtoes -18.0815
lfemur -10.5952 1.36228 -16.5995
ltibia 37.5423
lfoot -21.3664 -2.17077
ltoes -19.3526
49
root -13.9826 17.5849 1.28038 171.414 -87.5669 -171.753
lowerback 7.07961 -2.55642 2.60597
upperback -3.19642 -3.22291 -0.742838
thorax -7.52503 -1.73191 -1.80351
lowerneck 0.420978 -13.4285 -8.85137
upperneck 7.9756 -17.9798 0.558372
head 3.44598 -9.20842 0.989691
rclavicle 1.0958e-014 -8.94531e-016
rhumerus -43.3784 40.566 -95.0575
rradius 69.9553
rwrist 16.6062
rhand -22.271 -32.2173
rfingers 7.12502
rthumb 184.147 -242.157
lclavicle 1.0958e-014 -8.94531e-016
lhumerus -54.2892 14.3547 62.2731
lradius 40.0236
lwrist -8.87819
lhand -9.55105 16.1571
lfingers 7.12502
lthumb 16.4159 45.4825
rfemur -12.6252 0.000843976 18.3893
rtibia 37.6844
rfoot -23.5498 -0.803802
rtoes -18.2223
lfemur -10.6619 1.23867 -16.7828
ltibia 37.529
lfoot -21.2106 -2.27042
ltoes -19.8734
50
root -13.9875 17.5849 1.28578 167.837 -87.9777 -168.129
lowerback 6.97146 -2.69864 2.53326
upperback -3.16698 -3.42158 -0.717164
thorax -7.43579 -1.82406 -1.71363
lowerneck 0.471172 -13.432 -8.78628
upperneck 7.93468 -17.9951 0.630802
head 3.42429 -9.21159 1.0076
rclavicle 3.44394e-014 9.93923e-017
rhumerus -44.8209 41.3714 -96.7166
rradius 67.4402
rwrist 17.6103
rhand -21.739 -31.5565
rfingers 7.12502
rthumb 184.661 -241.485
lclavicle 3.44394e-014 9.93923e-017
lhumerus -52.5827 11.224 66.4602
lradius 40.131
lwrist -9.49169
lhand -9.49047 15.6447
lfingers 7.12502
lthumb 16.4743 44.9653
rfemur -12.5279 -0.169388 18.4424
rtibia 37.5955
rfoot -23.5367 -1.07778
rtoes -18.4466
lfemur -10.8054 1.12994 -16.7165
ltibia 37.5963
lfoot -21.0995 -2.46553
ltoes -20.3627
51
root -13.9941 17.586 1.28719 153.641 -88.2381 -153.863
lowerback 6.82392 -2.82313 2.69279
upperback -3.14296 -3.5671 -0.583256
thorax -7.33436 -1.89844 -1.64974
lowerneck 0.452804 -13.4609 -8.78313
upperneck 7.99994 -18.0363 0.661356
head 3.45598 -9.23239 1.0095
rclavicle 7.45443e-015 6.75868e-015
rhumerus -46.318 41.8482 -98.2713
rradius 64.9696
rwrist 18.7991
rhand -21.3426 -31.153
rfingers 7.12502
rthumb 185.044 -241.073
lclavicle 7.45443e-015 6.75868e-015
lhumerus -50.9523 7.53852 70.7618
lradius 40.4773
lwrist -10.0637
lhand -9.43338 14.9391
lfingers 7.12502
lthumb 16.5292 44.2551
rfemur -12.4329 -0.11291 18.8714
rtibia 37.4481
rfoot -23.452 -1.54638
rtoes -18.6332
lfemur -10.9985 1.00981 -16.3049
ltibia 37.7315
lfoot -21.0073 -2.75936
ltoes -20.1752
52
root -13.9957 17.5873 1.29133 136.029 -88.5184 -136.199
lowerback 6.84043 -2.93313 2.76162
upperback -3.20224 -3.69897 -0.456153
thorax -7.41047 -1.96429 -1.53394
lowerneck 0.541449 -13.5119 -8.92778
upperneck 8.09334 -18.1186 0.713261
head 3.49923 -9.27917 1.04297
rclavicle -7.47927e-015 -1.98785e-016
rhumerus -47.8528 41.8655 -99.5359
rradius 62.5927
rwrist 20.4268
rhand -20.6895 -30.8566
rfingers 7.12502
rthumb 185.674 -240.761
lclavicle -7.47927e-015 -1.98785e-016
lhumerus -49.4987 3.35553 75.1067
lradius 41.0094
lwrist -10.4916
lhand -9.42152 14.0562
lfingers 7.12502
lthumb 16.5406 43.3712
rfemur -12.3189 -0.151878 19.1638
rtibia 37.2804
rfoot -23.3423 -2.03566
rtoes -18.9172
lfemur -11.228 0.788258 -16.029
ltibia 37.8997
lfoot -20.9076 -3.05391
ltoes -19.6529
